<svg xmlns="http://www.w3.org/2000/svg" viewBox="0 0 31.77 19.62"><defs><style>.cls-1{fill:#daa520;}</style></defs><title>graduationBg</title><g id="Layer_2" data-name="Layer 2"><g id="Capa_1" data-name="Capa 1"><path class="cls-1" d="M31.77,14.25a1.2,1.2,0,0,0-.67-1.07V5.83a.23.23,0,0,0,.14-.22.23.23,0,0,0-.15-.21L15.92.05a.88.88,0,0,0-.6,0L.15,5.4A.23.23,0,0,0,0,5.61a.25.25,0,0,0,.14.22l15.15,5.89a.94.94,0,0,0,.66,0l14.1-5.49v7a1.17,1.17,0,0,0-.68,1.06,1.21,1.21,0,0,0,.73,1.11,9.79,9.79,0,0,0-.73,3.08,1.2,1.2,0,0,0,2.4,0A9.79,9.79,0,0,0,31,15.35,1.21,1.21,0,0,0,31.77,14.25Z"/><path class="cls-1" d="M4.89,8.8v4c0,3.15,4.75,5.72,10.73,5.89,6-.17,10.73-2.73,10.73-5.89v-4l-10.4,4a.94.94,0,0,1-.66,0Z"/></g></g></svg>