<svg xmlns="http://www.w3.org/2000/svg" viewBox="0 0 495.4 461.3"><defs><style>.cls-1{fill:#daa520;}</style></defs><title>homeBg</title><g id="Layer_2" data-name="Layer 2"><g id="Capa_1" data-name="Capa 1"><path class="cls-1" d="M487.08,208.47,412,133.39V46.66a28.4,28.4,0,0,0-56.79,0V76.6l-55.9-55.91C271.67-6.93,223.62-6.88,196,20.74L8.31,208.47a28.4,28.4,0,1,0,40.17,40.16L236.19,60.9c6.12-6.09,16.9-6.09,23,0L446.91,248.63a28.4,28.4,0,1,0,40.17-40.16Z"/><path class="cls-1" d="M257.56,114.79a13.94,13.94,0,0,0-19.72,0L72.71,279.87a13.94,13.94,0,0,0-4.08,9.87v120.4a51.15,51.15,0,0,0,51.16,51.16h81.75V334.69h92.3V461.3h81.75a51.15,51.15,0,0,0,51.16-51.15V289.74a13.9,13.9,0,0,0-4.08-9.87Z"/></g></g></svg>