<svg xmlns="http://www.w3.org/2000/svg" viewBox="0 0 152.18 181.17"><defs><style>.cls-1{fill:#daa520;}</style></defs><title>profesionalBg</title><g id="Layer_2" data-name="Layer 2"><g id="Capa_1" data-name="Capa 1"><path class="cls-1" d="M134.06,0H18.12A18.14,18.14,0,0,0,0,18.11v145a18.14,18.14,0,0,0,18.12,18.11H134.06a18.13,18.13,0,0,0,18.12-18.11V18.12A18.13,18.13,0,0,0,134.06,0Zm10.88,163.05a10.89,10.89,0,0,1-10.88,10.88H18.12A10.89,10.89,0,0,1,7.25,163.05V18.12A10.89,10.89,0,0,1,18.12,7.25H134.06a10.88,10.88,0,0,1,10.87,10.87V163.06h0Z"/><path class="cls-1" d="M114.3,79.21H37.89a3.33,3.33,0,0,0,0,6.66H114.3a3.33,3.33,0,0,0,0-6.66Z"/><path class="cls-1" d="M114.3,94.39H37.89a3.33,3.33,0,0,0,0,6.65H114.3a3.33,3.33,0,1,0,0-6.65Z"/><path class="cls-1" d="M114.3,109.56H37.89a3.33,3.33,0,0,0,0,6.65H114.3a3.33,3.33,0,1,0,0-6.65Z"/><path class="cls-1" d="M114.3,124.73H76.09a3.33,3.33,0,1,0,0,6.66H114.3a3.33,3.33,0,0,0,0-6.66Z"/><path class="cls-1" d="M114.3,154.69H87.55a3.33,3.33,0,0,0,0,6.66H114.3a3.33,3.33,0,0,0,0-6.66Z"/><path class="cls-1" d="M79.8,64.58c0-6.3-7.25-14.79-17-17.27a16.65,16.65,0,0,0,6.91-13.07,12.49,12.49,0,1,0-25,0,16.7,16.7,0,0,0,6.9,13.07c-9.77,2.48-17,11-17,17.27C34.57,72,79.8,72,79.8,64.58ZM56.18,50.93h-.06l-2.07-2.37a8.91,8.91,0,0,0,6.27,0l-2.08,2.37h-.05l5.34,12.9-6.35,6.33-6.34-6.33Z"/></g></g></svg>