<svg xmlns="http://www.w3.org/2000/svg" viewBox="0 0 248.35 67.22"><defs><style>.cls-1{fill:none;}.cls-1,.cls-3{stroke:#fff;stroke-miterlimit:10;stroke-width:2px;}.cls-2,.cls-3{fill:#fff;}</style></defs><g id="Camada_2" data-name="Camada 2"><g id="Camada_1-2" data-name="Camada 1"><ellipse cx="26.5" cy="33.61" rx="26.5" ry="33.61"/><path class="cls-1" d="M26.45,15.83c0-2.41,2.26-4.36,5-4.36"/><path class="cls-2" d="M37.6,37.65a3.76,3.76,0,0,0-4,2.93L32.45,38l-.22.07a4.36,4.36,0,0,0,.2,1c.48,1.14,1,2.26,1.53,3.37.28.6.59,1.18.91,1.81a5.57,5.57,0,0,1-2.91.18,11.38,11.38,0,0,0,0-1.94,3.32,3.32,0,0,0-3.17-3.07,22.54,22.54,0,0,0-7.42.08c-1.76.28-2.5,1.48-2.91,3A5.49,5.49,0,0,0,18.33,44c0,.3-.08.44-.36.44H15.56l-.07-.17c.13-.27.25-.55.4-.82.61-1,1.24-2.06,1.82-3.12a2.46,2.46,0,0,0,.32-1.6l-.13-.06-1,2.18a3.78,3.78,0,0,0-4-2.53L15,35.48a6,6,0,0,1,2.74-2,.76.76,0,0,1,.61,0,12.69,12.69,0,0,0,13.72.05.6.6,0,0,1,.48-.09A12.46,12.46,0,0,1,37.6,37.65Z"/><path class="cls-2" d="M37.08,50.28c.19.64-.24,1.07-.78,1.46a11.49,11.49,0,0,1-4.74,1.92,39.71,39.71,0,0,1-4.21.54A7.77,7.77,0,0,1,23,53.32a3.07,3.07,0,0,1-1.82-2.85,1.76,1.76,0,0,1,1.9-1.94,20.64,20.64,0,0,1,2.61.11,7.43,7.43,0,0,0,5.72-1.87c.32-.27.67-.51,1-.8a1.19,1.19,0,0,1,1.21-.24A4.27,4.27,0,0,1,37.08,50.28Z"/><path class="cls-2" d="M31.35,44.17c-.38-.24-.72-.46-1.07-.66a6.66,6.66,0,0,0-.83-.45.94.94,0,0,0-1.37,1,4.61,4.61,0,0,0,.43,1.21,4.13,4.13,0,0,0,.4.6,23,23,0,0,1-7.72.05,2.3,2.3,0,0,0,.36-.51A5.38,5.38,0,0,0,22,44a.92.92,0,0,0-1.35-.92,11.07,11.07,0,0,0-1.3.73l-.5.29a4.09,4.09,0,0,1,.36-2.29A2.65,2.65,0,0,1,21.36,40,20.88,20.88,0,0,1,29,40,3.2,3.2,0,0,1,31.35,44.17Z"/><path class="cls-2" d="M15.19,25.48,14,25.25a8.79,8.79,0,0,1,1-5,10.7,10.7,0,0,1,7.62-5.58A11.75,11.75,0,0,1,33,17.15a9.72,9.72,0,0,1,3.58,7.74c0,.26-.06.4-.32.45s-.76.18-1.16.28a18.4,18.4,0,0,0-.18-1.85,8.94,8.94,0,0,0-7.15-7.4,10.08,10.08,0,0,0-11.71,5.86A26,26,0,0,0,15.19,25.48Z"/><path class="cls-2" d="M43.54,41.45c.91,1.24.18,2.67-1.54,3,.57.35,1.37.08,2.16-.74l.13,0a3.21,3.21,0,0,1-.18.84,3.58,3.58,0,0,1-2.63,1.73,4.64,4.64,0,0,1-2.93-.49,8.26,8.26,0,0,1-4.36-4.13,1.1,1.1,0,0,1-.12-.52,3.18,3.18,0,0,1,3.81-3,.64.64,0,0,1,.38.2c.61.69,1.2,1.4,1.78,2.08l-.62,1.11a15.19,15.19,0,0,1,1.89-1,1.88,1.88,0,0,1,1.95.41c-.22.31-.42.46-.8.29A1,1,0,0,0,41.32,43a1.05,1.05,0,0,0,1.27.26,1,1,0,0,0,.55-1.13C43,41.71,43.31,41.64,43.54,41.45Z"/><path class="cls-2" d="M6.38,45.17c.79.55,1.12.64,1.81.44a2.15,2.15,0,0,1-1.62-1.15,2,2,0,0,1,0-2,5.4,5.4,0,0,1,.55.48.48.48,0,0,1,0,.36,1.06,1.06,0,0,0,.56,1.21A1,1,0,0,0,9.06,43a1,1,0,0,0-1.23-.41c-.56.24-.69-.2-1-.47.87-1.05,2.61-.71,3.91.76a1.5,1.5,0,0,0-.45-1.21l1.9-2.46a.9.9,0,0,1,.43-.28,3.17,3.17,0,0,1,3.81,2.44.48.48,0,0,1,0,.33,13.17,13.17,0,0,1-3.91,4.45,5.86,5.86,0,0,1-4.64,1A1.66,1.66,0,0,1,6.38,45.17Z"/><path class="cls-2" d="M22.31,48.09c-2.19.73-2,3.73-.63,4.9a21.38,21.38,0,0,0,1.82,1.29c-1.07-.11-2.08-.19-3.08-.33a16.2,16.2,0,0,1-5.06-1.58,2.48,2.48,0,0,1-1.43-2.72A4.22,4.22,0,0,1,16,46.45a2.15,2.15,0,0,1,2.4-.21C19.68,46.88,21,47.45,22.31,48.09Z"/><path class="cls-2" d="M36.6,25.68c-.14.62-.21,1.18-.38,1.69a10.65,10.65,0,0,1-8.32,7.32,11.5,11.5,0,0,1-11.68-3.81A8.61,8.61,0,0,1,14,26a2.74,2.74,0,0,1,0-.29,8.22,8.22,0,0,1,1.2.24c.12,0,.17.35.19.55A8.31,8.31,0,0,0,17,30.76a9.54,9.54,0,0,0,9,3.86,9.81,9.81,0,0,0,6.77-3.51A9,9,0,0,0,35,26.4c0-.25.12-.37.37-.42Z"/><path class="cls-2" d="M16.67,22.37a9.34,9.34,0,0,1,9.53-5.69A8.7,8.7,0,0,1,33.79,22c-.11-.14-.18-.21-.23-.29a9.24,9.24,0,0,0-6.6-4.3.71.71,0,0,0-.49.18,1.58,1.58,0,0,1-2,0,.51.51,0,0,0-.59-.17,9.85,9.85,0,0,0-7,4.73A1.64,1.64,0,0,1,16.67,22.37Z"/><path class="cls-2" d="M30.2,47c-1.91,1.66-6.59,1.59-9.75-.48a1.7,1.7,0,0,1,.5,0,22.72,22.72,0,0,0,8.18-.05C29.46,46.34,29.59,46.41,30.2,47Z"/><path class="cls-2" d="M18.53,23.29c.17-1.1,1.14-2.77,2.56-3a.93.93,0,0,1,1.05.33.87.87,0,0,1-.07,1.09c-.65.75-1.32,1.49-2,2.19a1.18,1.18,0,0,1-.77.28A.8.8,0,0,1,18.53,23.29Z"/><path class="cls-2" d="M15.25,45.35c-.05-.43.12-.49.45-.45a12.67,12.67,0,0,0,1.84.14,3.72,3.72,0,0,0,2-.75,11.52,11.52,0,0,1,1.16-.7c.5-.24.8,0,.78.52a3.19,3.19,0,0,1-1.61,2.12.45.45,0,0,1-.3,0A6.88,6.88,0,0,0,15.25,45.35Z"/><path class="cls-2" d="M37.62,50.14a4.81,4.81,0,0,0-3.84-4.89,2.2,2.2,0,0,1,2.52-.09,4.19,4.19,0,0,1,1.84,3.71,6.36,6.36,0,0,1-.35,1.31Z"/><path class="cls-2" d="M32.72,45.07c-.64.51-1.18,1-1.75,1.37a.45.45,0,0,1-.42,0,4.13,4.13,0,0,1-1.77-1.81,2.14,2.14,0,0,1-.17-.56c-.06-.53.23-.75.71-.53a4.46,4.46,0,0,1,.82.47A4.73,4.73,0,0,0,32.72,45.07Z"/><path class="cls-2" d="M13.43,50.62a2.93,2.93,0,0,1-.76-2.85A3.5,3.5,0,0,1,16,45.84,4.8,4.8,0,0,0,13.43,50.62Z"/><path class="cls-2" d="M37,27V22.86C38.07,23.59,38,26.13,37,27Z"/><path class="cls-2" d="M13.36,23.57l.27,4C12.74,27.09,12.51,24.68,13.36,23.57Z"/><circle class="cls-3" cx="33.49" cy="11.5" r="1.72"/><path d="M57.6,21.94a7.75,7.75,0,0,1,1-4.35,3.37,3.37,0,0,1,3-1.41,3.27,3.27,0,0,1,2.91,1.42,7.79,7.79,0,0,1,1,4.34v27a7.85,7.85,0,0,1-1,4.33,3.29,3.29,0,0,1-2.93,1.41,3.36,3.36,0,0,1-3-1.42,7.66,7.66,0,0,1-1-4.32Z"/><path d="M88.09,51.94a7.9,7.9,0,0,1-2.89,2.24,8.88,8.88,0,0,1-3.7.77A10.86,10.86,0,0,1,73,51,14.65,14.65,0,0,1,69.54,41a14.44,14.44,0,0,1,3.56-9.91,11.19,11.19,0,0,1,8.7-4,8.85,8.85,0,0,1,3.55.68,7.5,7.5,0,0,1,2.74,2.13A5.27,5.27,0,0,1,89.73,28a3.7,3.7,0,0,1,2.12-.64,3.31,3.31,0,0,1,2.93,1.39,7.72,7.72,0,0,1,1,4.32V48.94a7.76,7.76,0,0,1-1,4.32,3.27,3.27,0,0,1-2.92,1.42A3.69,3.69,0,0,1,89.63,54,5.12,5.12,0,0,1,88.09,51.94Zm-10.4-11a7.3,7.3,0,0,0,1.42,4.68,4.49,4.49,0,0,0,3.69,1.77,4.41,4.41,0,0,0,3.63-1.8,7.23,7.23,0,0,0,1.42-4.65,7,7,0,0,0-1.43-4.54,4.47,4.47,0,0,0-3.62-1.76,4.52,4.52,0,0,0-3.68,1.75A7,7,0,0,0,77.69,40.93Z"/><path d="M109.09,29.14a8.79,8.79,0,0,1,2.85-1.68,9.62,9.62,0,0,1,3.35-.57,11,11,0,0,1,8.61,4A14.9,14.9,0,0,1,127.4,41a14.13,14.13,0,0,1-3.59,9.75,11,11,0,0,1-8.52,4,9.15,9.15,0,0,1-3.59-.68,7.66,7.66,0,0,1-2.8-2,5.65,5.65,0,0,1-1.68,1.9,3.65,3.65,0,0,1-2.08.64,3.33,3.33,0,0,1-3-1.42,7.76,7.76,0,0,1-1-4.32v-27a7.85,7.85,0,0,1,1-4.35,3.83,3.83,0,0,1,5.94,0,7.67,7.67,0,0,1,1,4.35Zm-.15,11.74a7.42,7.42,0,0,0,1.46,4.79,4.76,4.76,0,0,0,7.48,0,7.35,7.35,0,0,0,1.46-4.76,7.61,7.61,0,0,0-1.45-4.83,4.71,4.71,0,0,0-7.49,0A7.58,7.58,0,0,0,108.94,40.88Z"/><path d="M137.85,43.23a5,5,0,0,0,1.83,3.46,6.44,6.44,0,0,0,4.13,1.25,11.8,11.8,0,0,0,4.94-1.28,12.46,12.46,0,0,1,3.36-1.28,3.12,3.12,0,0,1,2.27.85,2.92,2.92,0,0,1,.88,2.2c0,1.69-1.18,3.22-3.54,4.57a16.4,16.4,0,0,1-8.33,2,13.07,13.07,0,0,1-9.74-4,13.68,13.68,0,0,1-3.9-10A14.11,14.11,0,0,1,133.54,31,12.46,12.46,0,0,1,143,27a12.25,12.25,0,0,1,9.16,3.79A12.77,12.77,0,0,1,155.84,40a3.18,3.18,0,0,1-.8,2.49,4.9,4.9,0,0,1-3.1.71Zm-.1-5.15h10.4a4.82,4.82,0,0,0-1.61-3.35,5.25,5.25,0,0,0-6.93-.07A5.87,5.87,0,0,0,137.75,38.08Z"/><path d="M176.3,52.14a8.16,8.16,0,0,1-2.84,2,9,9,0,0,1-3.55.68,11,11,0,0,1-8.56-4.09,14.51,14.51,0,0,1-3.6-9.94,14.37,14.37,0,0,1,3.55-9.88,11.09,11.09,0,0,1,8.61-4,9.87,9.87,0,0,1,3.34.55,9.49,9.49,0,0,1,2.86,1.7v-7.2a7.85,7.85,0,0,1,1-4.35,3.38,3.38,0,0,1,3-1.41A3.28,3.28,0,0,1,183,17.6a7.89,7.89,0,0,1,1,4.34v27a7.76,7.76,0,0,1-.95,4.33,3.28,3.28,0,0,1-2.93,1.41,3.69,3.69,0,0,1-2.12-.65A5.3,5.3,0,0,1,176.3,52.14ZM165.85,40.88a7.35,7.35,0,0,0,1.47,4.76,4.58,4.58,0,0,0,3.73,1.83,4.51,4.51,0,0,0,3.71-1.81,7.5,7.5,0,0,0,1.45-4.78A7.7,7.7,0,0,0,174.78,36a4.69,4.69,0,0,0-7.47,0A7.61,7.61,0,0,0,165.85,40.88Z"/><path d="M206.41,52.14a8.29,8.29,0,0,1-2.85,2,9,9,0,0,1-3.55.68,11,11,0,0,1-8.56-4.09,14.51,14.51,0,0,1-3.6-9.94,14.42,14.42,0,0,1,3.55-9.88,11.09,11.09,0,0,1,8.61-4,9.87,9.87,0,0,1,3.34.55,9.49,9.49,0,0,1,2.86,1.7v-7.2a7.85,7.85,0,0,1,1-4.35,3.39,3.39,0,0,1,3-1.41,3.27,3.27,0,0,1,2.91,1.42,7.79,7.79,0,0,1,1,4.34v27a7.76,7.76,0,0,1-1,4.33,3.28,3.28,0,0,1-2.92,1.41A3.72,3.72,0,0,1,208,54,5.28,5.28,0,0,1,206.41,52.14ZM196,40.88a7.35,7.35,0,0,0,1.46,4.76,4.58,4.58,0,0,0,3.74,1.83,4.52,4.52,0,0,0,3.71-1.81,7.5,7.5,0,0,0,1.44-4.78A7.7,7.7,0,0,0,204.88,36a4.49,4.49,0,0,0-3.72-1.85,4.55,4.55,0,0,0-3.75,1.86A7.61,7.61,0,0,0,196,40.88Z"/><path d="M219.15,20.74a4.58,4.58,0,0,1,4.57-4.56,4.27,4.27,0,0,1,3.17,1.34,4.6,4.6,0,0,1,0,6.44,4.3,4.3,0,0,1-3.18,1.32A4.41,4.41,0,0,1,220.47,24,4.36,4.36,0,0,1,219.15,20.74Zm8.45,28.2a7.76,7.76,0,0,1-1,4.33,3.28,3.28,0,0,1-2.92,1.41,3.36,3.36,0,0,1-3-1.42,7.66,7.66,0,0,1-1-4.32V33.09a7.69,7.69,0,0,1,1-4.3,3.39,3.39,0,0,1,3-1.41,3.28,3.28,0,0,1,2.92,1.41,7.69,7.69,0,0,1,1,4.3Z"/><path d="M234.85,35h-.3a5.19,5.19,0,0,1-3.25-.91,3,3,0,0,1-1.19-2.48,2.93,2.93,0,0,1,1.19-2.49,6.55,6.55,0,0,1,3.55-1V24.62a7.72,7.72,0,0,1,1-4.32,3.38,3.38,0,0,1,3-1.41,3.31,3.31,0,0,1,2.94,1.41,7.72,7.72,0,0,1,1,4.32v3.47h.68A6.19,6.19,0,0,1,247,29a3,3,0,0,1,1.31,2.56,2.87,2.87,0,0,1-1.26,2.54,6.71,6.71,0,0,1-3.75.85h-.63v14a7.85,7.85,0,0,1-1,4.33,3.32,3.32,0,0,1-3,1.41,3.37,3.37,0,0,1-3-1.42,7.67,7.67,0,0,1-1-4.32Z"/></g></g></svg>