<svg xmlns="http://www.w3.org/2000/svg" viewBox="0 0 281.2 40.81"><defs><style>.cls-1{fill:#a8bac5;}.cls-2{fill:#f47d1f;}.cls-3{fill:#a7a9ac;}</style></defs><g id="Camada_2" data-name="Camada 2"><g id="Layer_1" data-name="Layer 1"><path class="cls-1" d="M0,40.81V12.42H6.61V35.48H27.9v5.33Z"/><path class="cls-2" d="M78.45,40.81V14.15h31.81c3,0,5.15.4,6.46,1.2a4.36,4.36,0,0,1,1.94,4v3.22a3.54,3.54,0,0,1-1.51,3,9.54,9.54,0,0,1-4.53,1.57,9,9,0,0,1,4.69,1.71,4.3,4.3,0,0,1,1.6,3.39v3.4a4.2,4.2,0,0,1-2.77,3.91q-2.65,1.32-8.24,1.32Zm27.86-22.3H86.93v6.3h19.38a6.83,6.83,0,0,0,3-.44,1.54,1.54,0,0,0,.84-1.45V20.4a1.62,1.62,0,0,0-.76-1.51A8.57,8.57,0,0,0,106.31,18.51Zm0,10.72H86.93V36h19.38a7.77,7.77,0,0,0,3.36-.5,2.07,2.07,0,0,0,.84-1.89v-2a2.07,2.07,0,0,0-.84-1.89A7.93,7.93,0,0,0,106.31,29.23Z"/><polyline class="cls-2" points="48.64 20.07 55.32 29.86 54.95 30.81 40.32 30.81 36.26 35.81 58.4 35.81 59.92 36.09 63.33 40.81 72.22 40.81 52.74 14.76"/><polyline class="cls-2" points="136.75 35.81 136.75 28.5 137.55 27.81 152.75 27.81 152.75 23.81 128.75 23.81 128.75 40.81 163.75 40.81 163.75 36.81 137.75 36.81"/><rect class="cls-2" x="128.76" y="14.81" width="35" height="5"/><path class="cls-2" d="M186.76,14.81h-12L174.1,16l12.83,9.35q3.65-2.12,7.95-4.24"/><path class="cls-2" d="M196.63,32.58l11.28,8.23H219.6l.48-1.09L203.25,27.39c-2.24,1.64-4.45,3.38-6.62,5.19"/><path class="cls-3" d="M184.76,40.81H174.11l-.88-1.39c7.11-6.86,38.89-36.27,108-39.42,0,0-58,2-96.64,40.81"/></g></g></svg>