<svg xmlns="http://www.w3.org/2000/svg" viewBox="0 0 597 1185.39"><defs><style>.cls-1{fill:#2a313c;}</style></defs><g id="Camada_2" data-name="Camada 2"><g id="iPhone_X_Mockup" data-name="iPhone X Mockup"><g id="iPhone_X_Imagem" data-name="iPhone X Imagem"><path class="cls-1" d="M66.79,4C90.6-2.23,114.89.69,139,.62,258.36.31,377.78.49,497.19.45c14.66,0,29.22.83,42.78,7,29.07,13.23,46.5,35.6,51.4,67.27,2.22,14.38,1,28.92,1,43.39.13,47.11.05,94.23.06,141.35,0,2.47-.85,5,2.95,6.2,2.29.7,1.41,3.82,1.42,5.9q.07,42.45,0,84.91,0,29,0,57.93c0,3,.29,6-4.43,5.73v4.75q0,111.39,0,222.76,0,223,.06,446c0,19.39-3.17,37.71-13.9,54.23-8.58,13.22-19.42,23.92-34,30.41-2.08.92-4.09,2-6.13,3a5,5,0,0,0-3.83-.56c-12.32,3.47-24.93,2.66-37.51,2.64q-82.67-.11-165.33,0c-2,0-4.09-.25-5.2,2-18.67-.5-37.34-.45-56,0-1.59-1.44-3.7-1.68-5.59-1.8-9.87-.62-19.76.08-29.64.13-9.41,0-18.87.61-28.32.61-13.07,0-26.2-1-39.19-.51-10.58.35-21.23.55-31.7.16-14-.51-27.93-.18-41.89-.56-6.33-.17-12.81.73-19-.35-21.09-3.72-40.08-11.68-53.15-29.81-9.72-13.49-16-28.22-16.58-45.16-.34-11,1.23-21.9,1-32.87,0-2.68,1-4.06,3.79-4.31-6.07-1-4.63-5.4-4.63-9q0-314.42,0-628.83v-4.63c-1.71-1.41-3.21.82-4.76-.71-.07-.9-.23-2-.25-3.19-.54-22.78.86-45.59-.78-68.36-.11-1.58.59-3,2-3,4.45-.11,3.85-3.16,3.84-6q0-5.5,0-11c0-1.54,0-3.64-1.27-4.11-5.31-2-3.72-6.33-3.8-10-.42-21.29.89-42.59-.71-63.86a3.4,3.4,0,0,1,3-4c2.73-.49,2.86-2.24,2.85-4.38,0-10.82,0-21.64,0-32.47,0-1.44.46-3.28-1.24-4-2.75-1.19-2.77-3.42-2.77-5.81q0-17.47-.05-35c0-1.86-.05-4,1.76-4.91,2.48-1.3,2.32-3.36,2.32-5.53q0-18.48,0-37c0-2.24-.58-4.71,2.76-5.86-3-2-2.91-4.39-2.86-7,.15-7.16.86-14.43-.13-21.45C3.89,78.84,6.85,67.56,9.67,56.16c2.77-9.4,8.69-17,14.36-24.68a42.28,42.28,0,0,1,8.42-9.41A83.08,83.08,0,0,1,66.79,4ZM41.61,558.84c-.13,1.82-.39,3.64-.39,5.45q0,84.91,0,169.82.06,96.89.17,193.77,0,83.42.06,166.82a74.14,74.14,0,0,0,.86,13.42c4.58,25,26.7,43.12,52.6,43.15q89.7.11,179.38,0H501.62c12,0,23.07-3,32.71-10.31,15-11.31,22.08-26.46,22.08-45.24q-.09-265.47,0-530.95c0-1.66-.14-3.32-.21-5,.07-1.16.2-2.32.2-3.48q0-235.77,0-471.53A50.39,50.39,0,0,0,555,73c-6.16-25.15-27.3-41.66-53.12-41.71q-23.75,0-47.47,0c-9.54,0-10.46.91-10.86,10.41-.78,18.9-13.65,30.8-30.2,30.82q-114.17.15-228.35,0a28.35,28.35,0,0,1-8.85-.9C162.79,67.35,154.76,56,154.69,41c0-6.72-2.29-9.68-7.89-9.7-18.32-.07-36.65-.38-55,.14-13.94.39-26.36,5.6-36,15.85-10.68,11.31-14.67,25-14.59,40.59.3,63.6,0,127.2,0,190.79q0,137.11,0,274.21C41.23,554.88,41.48,556.86,41.61,558.84ZM8.07,1065.57l-.4.22a3,3,0,0,0,.66.36c.11,0,.27-.13.4-.2Z"/></g></g></g></svg>